<mxfile host="app.diagrams.net" modified="2023-10-13T07:48:56.191Z" agent="Mozilla/5.0 (Windows NT 10.0; Win64; x64) AppleWebKit/537.36 (KHTML, like Gecko) Chrome/117.0.0.0 Safari/537.36" etag="S3WSr3S2uBaq4RoQMyg1" version="22.0.4" type="device">
  <diagram id="mCyr1kptdM3YggUfpTlr" name="Page-1">
    <mxGraphModel dx="625" dy="1786" grid="1" gridSize="10" guides="1" tooltips="1" connect="1" arrows="1" fold="1" page="1" pageScale="1" pageWidth="850" pageHeight="1100" math="0" shadow="0">
      <root>
        <mxCell id="0" />
        <mxCell id="1" parent="0" />
        <mxCell id="RMtQjLJvcsIaxz_irh20-2" value="User" style="swimlane;fontStyle=0;childLayout=stackLayout;horizontal=1;startSize=26;fillColor=none;horizontalStack=0;resizeParent=1;resizeParentMax=0;resizeLast=0;collapsible=1;marginBottom=0;" parent="1" vertex="1">
          <mxGeometry x="280" y="-970" width="140" height="130" as="geometry" />
        </mxCell>
        <mxCell id="RMtQjLJvcsIaxz_irh20-3" value="name" style="text;strokeColor=none;fillColor=none;align=left;verticalAlign=top;spacingLeft=4;spacingRight=4;overflow=hidden;rotatable=0;points=[[0,0.5],[1,0.5]];portConstraint=eastwest;" parent="RMtQjLJvcsIaxz_irh20-2" vertex="1">
          <mxGeometry y="26" width="140" height="26" as="geometry" />
        </mxCell>
        <mxCell id="RMtQjLJvcsIaxz_irh20-4" value="email" style="text;strokeColor=none;fillColor=none;align=left;verticalAlign=top;spacingLeft=4;spacingRight=4;overflow=hidden;rotatable=0;points=[[0,0.5],[1,0.5]];portConstraint=eastwest;" parent="RMtQjLJvcsIaxz_irh20-2" vertex="1">
          <mxGeometry y="52" width="140" height="26" as="geometry" />
        </mxCell>
        <mxCell id="RMtQjLJvcsIaxz_irh20-5" value="region" style="text;strokeColor=none;fillColor=none;align=left;verticalAlign=top;spacingLeft=4;spacingRight=4;overflow=hidden;rotatable=0;points=[[0,0.5],[1,0.5]];portConstraint=eastwest;" parent="RMtQjLJvcsIaxz_irh20-2" vertex="1">
          <mxGeometry y="78" width="140" height="26" as="geometry" />
        </mxCell>
        <mxCell id="FqOVL9ZBR_WUCR_oqMgw-46" value="phoneNumber" style="text;strokeColor=none;fillColor=none;align=left;verticalAlign=top;spacingLeft=4;spacingRight=4;overflow=hidden;rotatable=0;points=[[0,0.5],[1,0.5]];portConstraint=eastwest;" parent="RMtQjLJvcsIaxz_irh20-2" vertex="1">
          <mxGeometry y="104" width="140" height="26" as="geometry" />
        </mxCell>
        <mxCell id="RMtQjLJvcsIaxz_irh20-8" value="TemperatureRequest" style="swimlane;fontStyle=0;childLayout=stackLayout;horizontal=1;startSize=26;fillColor=none;horizontalStack=0;resizeParent=1;resizeParentMax=0;resizeLast=0;collapsible=1;marginBottom=0;" parent="1" vertex="1">
          <mxGeometry x="520" y="-970" width="140" height="78" as="geometry" />
        </mxCell>
        <mxCell id="RMtQjLJvcsIaxz_irh20-9" value="region" style="text;strokeColor=none;fillColor=none;align=left;verticalAlign=top;spacingLeft=4;spacingRight=4;overflow=hidden;rotatable=0;points=[[0,0.5],[1,0.5]];portConstraint=eastwest;" parent="RMtQjLJvcsIaxz_irh20-8" vertex="1">
          <mxGeometry y="26" width="140" height="26" as="geometry" />
        </mxCell>
        <mxCell id="FqOVL9ZBR_WUCR_oqMgw-47" value="info" style="text;strokeColor=none;fillColor=none;align=left;verticalAlign=top;spacingLeft=4;spacingRight=4;overflow=hidden;rotatable=0;points=[[0,0.5],[1,0.5]];portConstraint=eastwest;" parent="RMtQjLJvcsIaxz_irh20-8" vertex="1">
          <mxGeometry y="52" width="140" height="26" as="geometry" />
        </mxCell>
        <mxCell id="RMtQjLJvcsIaxz_irh20-13" value="TemperatureAnswer" style="swimlane;fontStyle=0;childLayout=stackLayout;horizontal=1;startSize=26;fillColor=none;horizontalStack=0;resizeParent=1;resizeParentMax=0;resizeLast=0;collapsible=1;marginBottom=0;" parent="1" vertex="1">
          <mxGeometry x="520" y="-702" width="140" height="78" as="geometry" />
        </mxCell>
        <mxCell id="FqOVL9ZBR_WUCR_oqMgw-8" value="answer" style="text;strokeColor=none;fillColor=none;align=left;verticalAlign=top;spacingLeft=4;spacingRight=4;overflow=hidden;rotatable=0;points=[[0,0.5],[1,0.5]];portConstraint=eastwest;" parent="RMtQjLJvcsIaxz_irh20-13" vertex="1">
          <mxGeometry y="26" width="140" height="26" as="geometry" />
        </mxCell>
        <mxCell id="FqOVL9ZBR_WUCR_oqMgw-48" value="date" style="text;strokeColor=none;fillColor=none;align=left;verticalAlign=top;spacingLeft=4;spacingRight=4;overflow=hidden;rotatable=0;points=[[0,0.5],[1,0.5]];portConstraint=eastwest;" parent="RMtQjLJvcsIaxz_irh20-13" vertex="1">
          <mxGeometry y="52" width="140" height="26" as="geometry" />
        </mxCell>
        <mxCell id="RMtQjLJvcsIaxz_irh20-15" value="Windy" style="swimlane;fontStyle=0;childLayout=stackLayout;horizontal=1;startSize=26;fillColor=none;horizontalStack=0;resizeParent=1;resizeParentMax=0;resizeLast=0;collapsible=1;marginBottom=0;" parent="1" vertex="1">
          <mxGeometry x="270" y="-710" width="140" height="82" as="geometry">
            <mxRectangle x="270" y="-710" width="70" height="30" as="alternateBounds" />
          </mxGeometry>
        </mxCell>
        <mxCell id="FqOVL9ZBR_WUCR_oqMgw-6" value="&amp;nbsp;region" style="text;html=1;align=left;verticalAlign=middle;resizable=0;points=[];autosize=1;strokeColor=none;fillColor=none;" parent="RMtQjLJvcsIaxz_irh20-15" vertex="1">
          <mxGeometry y="26" width="140" height="30" as="geometry" />
        </mxCell>
        <mxCell id="FqOVL9ZBR_WUCR_oqMgw-9" value="TemperatureState" style="text;strokeColor=none;fillColor=none;align=left;verticalAlign=top;spacingLeft=4;spacingRight=4;overflow=hidden;rotatable=0;points=[[0,0.5],[1,0.5]];portConstraint=eastwest;" parent="RMtQjLJvcsIaxz_irh20-15" vertex="1">
          <mxGeometry y="56" width="140" height="26" as="geometry" />
        </mxCell>
        <mxCell id="FqOVL9ZBR_WUCR_oqMgw-14" value="HealthConsulationRequest" style="swimlane;fontStyle=0;childLayout=stackLayout;horizontal=1;startSize=26;fillColor=none;horizontalStack=0;resizeParent=1;resizeParentMax=0;resizeLast=0;collapsible=1;marginBottom=0;" parent="1" vertex="1">
          <mxGeometry x="110" y="-1090" width="150" height="104" as="geometry" />
        </mxCell>
        <mxCell id="FqOVL9ZBR_WUCR_oqMgw-15" value="date" style="text;strokeColor=none;fillColor=none;align=left;verticalAlign=top;spacingLeft=4;spacingRight=4;overflow=hidden;rotatable=0;points=[[0,0.5],[1,0.5]];portConstraint=eastwest;" parent="FqOVL9ZBR_WUCR_oqMgw-14" vertex="1">
          <mxGeometry y="26" width="150" height="26" as="geometry" />
        </mxCell>
        <mxCell id="FqOVL9ZBR_WUCR_oqMgw-16" value="description" style="text;strokeColor=none;fillColor=none;align=left;verticalAlign=top;spacingLeft=4;spacingRight=4;overflow=hidden;rotatable=0;points=[[0,0.5],[1,0.5]];portConstraint=eastwest;" parent="FqOVL9ZBR_WUCR_oqMgw-14" vertex="1">
          <mxGeometry y="52" width="150" height="26" as="geometry" />
        </mxCell>
        <mxCell id="FqOVL9ZBR_WUCR_oqMgw-17" value="userInfo" style="text;strokeColor=none;fillColor=none;align=left;verticalAlign=top;spacingLeft=4;spacingRight=4;overflow=hidden;rotatable=0;points=[[0,0.5],[1,0.5]];portConstraint=eastwest;" parent="FqOVL9ZBR_WUCR_oqMgw-14" vertex="1">
          <mxGeometry y="78" width="150" height="26" as="geometry" />
        </mxCell>
        <mxCell id="FqOVL9ZBR_WUCR_oqMgw-21" value="Doctor" style="swimlane;fontStyle=0;childLayout=stackLayout;horizontal=1;startSize=26;fillColor=none;horizontalStack=0;resizeParent=1;resizeParentMax=0;resizeLast=0;collapsible=1;marginBottom=0;" parent="1" vertex="1">
          <mxGeometry x="10" y="-910" width="140" height="130" as="geometry" />
        </mxCell>
        <mxCell id="FqOVL9ZBR_WUCR_oqMgw-22" value="name" style="text;strokeColor=none;fillColor=none;align=left;verticalAlign=top;spacingLeft=4;spacingRight=4;overflow=hidden;rotatable=0;points=[[0,0.5],[1,0.5]];portConstraint=eastwest;" parent="FqOVL9ZBR_WUCR_oqMgw-21" vertex="1">
          <mxGeometry y="26" width="140" height="26" as="geometry" />
        </mxCell>
        <mxCell id="FqOVL9ZBR_WUCR_oqMgw-23" value="email" style="text;strokeColor=none;fillColor=none;align=left;verticalAlign=top;spacingLeft=4;spacingRight=4;overflow=hidden;rotatable=0;points=[[0,0.5],[1,0.5]];portConstraint=eastwest;" parent="FqOVL9ZBR_WUCR_oqMgw-21" vertex="1">
          <mxGeometry y="52" width="140" height="26" as="geometry" />
        </mxCell>
        <mxCell id="FqOVL9ZBR_WUCR_oqMgw-24" value="speciality" style="text;strokeColor=none;fillColor=none;align=left;verticalAlign=top;spacingLeft=4;spacingRight=4;overflow=hidden;rotatable=0;points=[[0,0.5],[1,0.5]];portConstraint=eastwest;" parent="FqOVL9ZBR_WUCR_oqMgw-21" vertex="1">
          <mxGeometry y="78" width="140" height="26" as="geometry" />
        </mxCell>
        <mxCell id="NNpvGeIuYpIDWv6Obldc-1" value="phoneNumber" style="text;strokeColor=none;fillColor=none;align=left;verticalAlign=top;spacingLeft=4;spacingRight=4;overflow=hidden;rotatable=0;points=[[0,0.5],[1,0.5]];portConstraint=eastwest;" vertex="1" parent="FqOVL9ZBR_WUCR_oqMgw-21">
          <mxGeometry y="104" width="140" height="26" as="geometry" />
        </mxCell>
        <mxCell id="FqOVL9ZBR_WUCR_oqMgw-32" value="send" style="html=1;verticalAlign=bottom;endArrow=block;curved=0;rounded=0;entryX=-0.026;entryY=0.315;entryDx=0;entryDy=0;entryPerimeter=0;" parent="1" edge="1">
          <mxGeometry width="80" relative="1" as="geometry">
            <mxPoint x="410" y="-669.29" as="sourcePoint" />
            <mxPoint x="516.3599999999999" y="-668.44" as="targetPoint" />
          </mxGeometry>
        </mxCell>
        <mxCell id="FqOVL9ZBR_WUCR_oqMgw-33" value="answer" style="html=1;verticalAlign=bottom;endArrow=block;curved=0;rounded=0;exitX=0.5;exitY=0;exitDx=0;exitDy=0;entryX=0.522;entryY=1.046;entryDx=0;entryDy=0;entryPerimeter=0;" parent="1" source="RMtQjLJvcsIaxz_irh20-13" target="FqOVL9ZBR_WUCR_oqMgw-47" edge="1">
          <mxGeometry x="-0.0926" y="-30" width="80" relative="1" as="geometry">
            <mxPoint x="460" y="-760" as="sourcePoint" />
            <mxPoint x="590" y="-900" as="targetPoint" />
            <mxPoint as="offset" />
          </mxGeometry>
        </mxCell>
        <mxCell id="FqOVL9ZBR_WUCR_oqMgw-34" value="send" style="html=1;verticalAlign=bottom;endArrow=block;curved=0;rounded=0;entryX=-0.013;entryY=0.687;entryDx=0;entryDy=0;entryPerimeter=0;" parent="1" target="RMtQjLJvcsIaxz_irh20-9" edge="1">
          <mxGeometry width="80" relative="1" as="geometry">
            <mxPoint x="420" y="-928.29" as="sourcePoint" />
            <mxPoint x="500" y="-920" as="targetPoint" />
          </mxGeometry>
        </mxCell>
        <mxCell id="FqOVL9ZBR_WUCR_oqMgw-35" value="send" style="html=1;verticalAlign=bottom;endArrow=block;curved=0;rounded=0;exitX=0.5;exitY=0;exitDx=0;exitDy=0;entryX=0.998;entryY=0.874;entryDx=0;entryDy=0;entryPerimeter=0;" parent="1" source="RMtQjLJvcsIaxz_irh20-2" target="FqOVL9ZBR_WUCR_oqMgw-15" edge="1">
          <mxGeometry width="80" relative="1" as="geometry">
            <mxPoint x="140" y="-820" as="sourcePoint" />
            <mxPoint x="220" y="-820" as="targetPoint" />
            <Array as="points">
              <mxPoint x="350" y="-1041" />
            </Array>
          </mxGeometry>
        </mxCell>
        <mxCell id="FqOVL9ZBR_WUCR_oqMgw-36" value="send" style="html=1;verticalAlign=bottom;endArrow=block;curved=0;rounded=0;exitX=0;exitY=0.5;exitDx=0;exitDy=0;entryX=0.5;entryY=0;entryDx=0;entryDy=0;" parent="1" source="FqOVL9ZBR_WUCR_oqMgw-17" target="FqOVL9ZBR_WUCR_oqMgw-21" edge="1">
          <mxGeometry x="0.2586" y="-15" width="80" relative="1" as="geometry">
            <mxPoint x="140" y="-820" as="sourcePoint" />
            <mxPoint x="220" y="-820" as="targetPoint" />
            <mxPoint as="offset" />
            <Array as="points">
              <mxPoint x="80" y="-1000" />
            </Array>
          </mxGeometry>
        </mxCell>
        <mxCell id="FqOVL9ZBR_WUCR_oqMgw-37" value="connect" style="html=1;verticalAlign=bottom;endArrow=block;curved=0;rounded=0;exitX=1;exitY=0.5;exitDx=0;exitDy=0;entryX=0;entryY=0.5;entryDx=0;entryDy=0;" parent="1" source="FqOVL9ZBR_WUCR_oqMgw-22" target="RMtQjLJvcsIaxz_irh20-5" edge="1">
          <mxGeometry x="-0.0764" width="80" relative="1" as="geometry">
            <mxPoint x="140" y="-820" as="sourcePoint" />
            <mxPoint x="220" y="-820" as="targetPoint" />
            <Array as="points">
              <mxPoint x="170" y="-870" />
              <mxPoint x="170" y="-880" />
              <mxPoint x="200" y="-879" />
              <mxPoint x="240" y="-879" />
            </Array>
            <mxPoint as="offset" />
          </mxGeometry>
        </mxCell>
        <mxCell id="FqOVL9ZBR_WUCR_oqMgw-39" value="&lt;font style=&quot;font-size: 10px;&quot;&gt;1&lt;/font&gt;" style="text;html=1;strokeColor=none;fillColor=none;align=center;verticalAlign=middle;whiteSpace=wrap;rounded=0;" parent="1" vertex="1">
          <mxGeometry x="398" y="-691.5" width="55" height="27" as="geometry" />
        </mxCell>
        <mxCell id="FqOVL9ZBR_WUCR_oqMgw-40" value="&lt;font style=&quot;font-size: 10px;&quot;&gt;*&lt;/font&gt;" style="text;html=1;strokeColor=none;fillColor=none;align=center;verticalAlign=middle;whiteSpace=wrap;rounded=0;" parent="1" vertex="1">
          <mxGeometry x="480" y="-691.5" width="55" height="27" as="geometry" />
        </mxCell>
        <mxCell id="FqOVL9ZBR_WUCR_oqMgw-41" value="&lt;font style=&quot;font-size: 10px;&quot;&gt;1&lt;/font&gt;" style="text;html=1;strokeColor=none;fillColor=none;align=center;verticalAlign=middle;whiteSpace=wrap;rounded=0;" parent="1" vertex="1">
          <mxGeometry x="398" y="-950" width="55" height="27" as="geometry" />
        </mxCell>
        <mxCell id="FqOVL9ZBR_WUCR_oqMgw-42" value="&lt;font style=&quot;font-size: 10px;&quot;&gt;*&lt;/font&gt;" style="text;html=1;strokeColor=none;fillColor=none;align=center;verticalAlign=middle;whiteSpace=wrap;rounded=0;" parent="1" vertex="1">
          <mxGeometry x="480" y="-950" width="55" height="27" as="geometry" />
        </mxCell>
        <mxCell id="FqOVL9ZBR_WUCR_oqMgw-43" value="&lt;font style=&quot;font-size: 10px;&quot;&gt;1&lt;/font&gt;" style="text;html=1;strokeColor=none;fillColor=none;align=center;verticalAlign=middle;whiteSpace=wrap;rounded=0;" parent="1" vertex="1">
          <mxGeometry x="580" y="-880" width="55" height="27" as="geometry" />
        </mxCell>
        <mxCell id="FqOVL9ZBR_WUCR_oqMgw-44" value="&lt;font style=&quot;font-size: 10px;&quot;&gt;1&lt;/font&gt;" style="text;html=1;strokeColor=none;fillColor=none;align=center;verticalAlign=middle;whiteSpace=wrap;rounded=0;" parent="1" vertex="1">
          <mxGeometry x="580" y="-730" width="55" height="27" as="geometry" />
        </mxCell>
        <mxCell id="FqOVL9ZBR_WUCR_oqMgw-49" value="&lt;font style=&quot;font-size: 10px;&quot;&gt;1&lt;/font&gt;" style="text;html=1;strokeColor=none;fillColor=none;align=center;verticalAlign=middle;whiteSpace=wrap;rounded=0;" parent="1" vertex="1">
          <mxGeometry x="330" y="-997" width="55" height="27" as="geometry" />
        </mxCell>
        <mxCell id="FqOVL9ZBR_WUCR_oqMgw-50" value="&lt;font style=&quot;font-size: 10px;&quot;&gt;*&lt;br&gt;&lt;/font&gt;" style="text;html=1;strokeColor=none;fillColor=none;align=center;verticalAlign=middle;whiteSpace=wrap;rounded=0;" parent="1" vertex="1">
          <mxGeometry x="250" y="-1070" width="55" height="27" as="geometry" />
        </mxCell>
        <mxCell id="FqOVL9ZBR_WUCR_oqMgw-51" value="&lt;font style=&quot;font-size: 10px;&quot;&gt;1&lt;/font&gt;" style="text;html=1;strokeColor=none;fillColor=none;align=center;verticalAlign=middle;whiteSpace=wrap;rounded=0;" parent="1" vertex="1">
          <mxGeometry x="55" y="-1024" width="55" height="27" as="geometry" />
        </mxCell>
        <mxCell id="FqOVL9ZBR_WUCR_oqMgw-52" value="&lt;font style=&quot;font-size: 10px;&quot;&gt;*&lt;/font&gt;" style="text;html=1;strokeColor=none;fillColor=none;align=center;verticalAlign=middle;whiteSpace=wrap;rounded=0;" parent="1" vertex="1">
          <mxGeometry x="40" y="-937" width="55" height="27" as="geometry" />
        </mxCell>
        <mxCell id="NNpvGeIuYpIDWv6Obldc-2" value="&lt;font style=&quot;font-size: 10px;&quot;&gt;1&lt;/font&gt;" style="text;html=1;strokeColor=none;fillColor=none;align=center;verticalAlign=middle;whiteSpace=wrap;rounded=0;" vertex="1" parent="1">
          <mxGeometry x="140" y="-904" width="55" height="27" as="geometry" />
        </mxCell>
        <mxCell id="NNpvGeIuYpIDWv6Obldc-3" value="&lt;font style=&quot;font-size: 10px;&quot;&gt;1&lt;/font&gt;" style="text;html=1;strokeColor=none;fillColor=none;align=center;verticalAlign=middle;whiteSpace=wrap;rounded=0;" vertex="1" parent="1">
          <mxGeometry x="230" y="-903" width="55" height="27" as="geometry" />
        </mxCell>
      </root>
    </mxGraphModel>
  </diagram>
</mxfile>
